# xmcd
#
# Track frame offsets: 
#        150
#        22710
#        39298
#        61203
#        84668
#        104175
#        124745
#        142787
#        159357
#        180347
#        196277
#        210089
#        231244
#        249644
#        265954
#        282444
#        303832
#        319985
#        334985
#
# Disc length: 4773 seconds
#
# Revision: 1
# Processed by: cddbd v1.5.2PL0 Copyright (c) Steve Scherf et al.
# Submitted via: ExactAudioCopy v1.3
#
DISCID=0212a313
DTITLE=Lightning Hopkins - Akella Presents - Greatest Bluesmen - vol. 
DTITLE=02  CD1
DYEAR=2017
DGENRE=Blues
TTITLE0=Rocky Mountain
TTITLE1=Black Cadillac
TTITLE2=I'm A Crawling Black Snake
TTITLE3=I Work Down On The Chain Gang
TTITLE4=Sail on, Little Girl, Sail on
TTITLE5=Automobile Blues
TTITLE6=My Black Name
TTITLE7=Darling, Do You Remember Me
TTITLE8=I Got Tired
TTITLE9=Pneumonia Blues
TTITLE10=My Grandpa Is Old Too!
TTITLE11=You Better Stop Her
TTITLE12=Katie Mae
TTITLE13=Me And Ray Charles
TTITLE14=Mojo Hand
TTITLE15=It's A Sin To Be Rich, It's A Low-Down Shame To Be Poor
TTITLE16=Just Out Of Louisiana
TTITLE17=My Starter Won't Start This Morning
TTITLE18=I Growed Up With The Blues (Interview December 1964)
EXTD=
EXTT0=
EXTT1=
EXTT2=
EXTT3=
EXTT4=
EXTT5=
EXTT6=
EXTT7=
EXTT8=
EXTT9=
EXTT10=
EXTT11=
EXTT12=
EXTT13=
EXTT14=
EXTT15=
EXTT16=
EXTT17=
EXTT18=
PLAYORDER=
